<svg id="Layer_1" data-name="Layer 1" xmlns="http://www.w3.org/2000/svg" viewBox="0 0 2000 2000"><defs><style>.cls-1{fill:#fff;}</style></defs><title>fiveai_logo_white_onblue</title><rect class="cls-1" x="565.77" y="151.34" width="113.15" height="792.08"/><rect class="cls-1" x="1547.38" y="1056.58" width="113.15" height="792.08"/><polygon points="1343.71 151.34 1113.15 705.96 882.6 151.34 769.45 151.34 1113.15 978.16 1456.86 151.34 1343.71 151.34"/><polygon class="cls-1" points="882.6 1848.66 1113.15 1294.04 1343.71 1848.66 1456.86 1848.66 1113.15 1021.84 769.45 1848.66 882.6 1848.66"/><polygon class="cls-1" points="452.62 253.18 452.62 151.34 0 151.34 0 943.42 113.15 943.42 113.15 598.3 429.99 598.3 429.99 496.46 113.15 496.46 113.15 253.18 452.62 253.18"/><polygon class="cls-1" points="2000 253.18 2000 151.34 1547.38 151.34 1547.38 943.42 2000 943.42 2000 841.58 1660.54 841.58 1660.54 598.3 1977.37 598.3 1977.37 496.46 1660.54 496.46 1660.54 253.18 2000 253.18"/></svg>